<svg width="67" height="14" viewBox="0 0 67 14" fill="none" xmlns="http://www.w3.org/2000/svg">
<g clip-path="url(#clip0_32_278)">
<path d="M18.8601 6.29629V8.71194H18.0464V5.66563H18.8094L18.8601 6.29629ZM18.7475 7.0818H18.5222C18.5222 6.8697 18.5476 6.6745 18.5983 6.49619C18.6508 6.316 18.7268 6.16021 18.8263 6.02882C18.9277 5.89556 19.0525 5.79233 19.2008 5.71912C19.3491 5.64592 19.5208 5.60932 19.716 5.60932C19.8511 5.60932 19.975 5.62997 20.0876 5.67126C20.2003 5.71068 20.2969 5.77356 20.3776 5.8599C20.4602 5.94436 20.524 6.0551 20.5691 6.19212C20.6141 6.32726 20.6366 6.48962 20.6366 6.67919V8.71194H19.8258V6.76929C19.8258 6.63039 19.807 6.5234 19.7695 6.44832C19.732 6.37325 19.6785 6.32069 19.609 6.29066C19.5414 6.26063 19.4598 6.24561 19.3641 6.24561C19.259 6.24561 19.167 6.2672 19.0882 6.31037C19.0112 6.35354 18.9474 6.4136 18.8967 6.49056C18.846 6.56563 18.8085 6.65385 18.7841 6.75521C18.7597 6.85656 18.7475 6.96543 18.7475 7.0818ZM20.5606 6.98889L20.2706 7.02549C20.2706 6.82653 20.295 6.64165 20.3438 6.47085C20.3945 6.30004 20.4687 6.14989 20.5663 6.02038C20.6657 5.89087 20.7887 5.79045 20.9351 5.71912C21.0815 5.64592 21.2504 5.60932 21.4419 5.60932C21.5883 5.60932 21.7215 5.63091 21.8417 5.67408C21.9618 5.71537 22.0641 5.782 22.1485 5.87397C22.2349 5.96407 22.3006 6.08232 22.3456 6.22872C22.3926 6.37512 22.416 6.55437 22.416 6.76647V8.71194H21.6023V6.76647C21.6023 6.6257 21.5836 6.51871 21.546 6.44551C21.5104 6.37043 21.4578 6.31881 21.3884 6.29066C21.3208 6.26063 21.2401 6.24561 21.1462 6.24561C21.0486 6.24561 20.9632 6.26532 20.89 6.30474C20.8168 6.34228 20.7558 6.39483 20.707 6.4624C20.6582 6.52997 20.6216 6.60881 20.5972 6.6989C20.5728 6.78712 20.5606 6.88378 20.5606 6.98889ZM24.6881 8.02498V6.66793C24.6881 6.57033 24.6721 6.4868 24.6402 6.41735C24.6083 6.34603 24.5586 6.29066 24.491 6.25124C24.4253 6.21183 24.3399 6.19212 24.2348 6.19212C24.1447 6.19212 24.0668 6.20807 24.0011 6.23998C23.9354 6.27001 23.8847 6.31412 23.8491 6.37231C23.8134 6.42862 23.7956 6.49525 23.7956 6.5722H22.9847C22.9847 6.44269 23.0148 6.31975 23.0748 6.20338C23.1349 6.08701 23.2222 5.98471 23.3367 5.8965C23.4512 5.8064 23.5872 5.73602 23.7449 5.68534C23.9044 5.63466 24.0828 5.60932 24.2798 5.60932C24.5163 5.60932 24.7266 5.64874 24.9105 5.72757C25.0944 5.8064 25.239 5.92465 25.3441 6.08232C25.4511 6.23998 25.5046 6.43706 25.5046 6.67356V7.97711C25.5046 8.14416 25.5149 8.28118 25.5355 8.38817C25.5562 8.49328 25.5862 8.58525 25.6256 8.66408V8.71194H24.8063C24.7669 8.62936 24.7369 8.52613 24.7162 8.40225C24.6975 8.27649 24.6881 8.15073 24.6881 8.02498ZM24.7951 6.85656L24.8007 7.31548H24.3474C24.2404 7.31548 24.1475 7.32768 24.0687 7.35208C23.9898 7.37648 23.9251 7.41121 23.8744 7.45625C23.8237 7.49943 23.7862 7.5501 23.7618 7.60829C23.7393 7.66647 23.728 7.73029 23.728 7.79974C23.728 7.86919 23.744 7.93207 23.7759 7.98837C23.8078 8.04281 23.8538 8.08598 23.9138 8.11789C23.9739 8.14792 24.0443 8.16293 24.125 8.16293C24.247 8.16293 24.353 8.13853 24.4431 8.08973C24.5332 8.04093 24.6027 7.98087 24.6515 7.90954C24.7022 7.83822 24.7284 7.77065 24.7303 7.70683L24.9443 8.05031C24.9143 8.12727 24.873 8.20704 24.8204 8.28963C24.7697 8.37221 24.705 8.45011 24.6261 8.52331C24.5473 8.59463 24.4525 8.65376 24.3418 8.70068C24.231 8.74573 24.0997 8.76825 23.9476 8.76825C23.7543 8.76825 23.5788 8.72978 23.4211 8.65282C23.2653 8.57399 23.1415 8.46606 23.0495 8.32904C22.9594 8.19015 22.9143 8.03248 22.9143 7.85605C22.9143 7.69651 22.9444 7.5548 23.0044 7.43092C23.0645 7.30704 23.1527 7.20286 23.2691 7.1184C23.3873 7.03206 23.5347 6.96731 23.7111 6.92414C23.8876 6.87909 24.0921 6.85656 24.3249 6.85656H24.7951ZM26.9235 6.316V8.71194H26.1127V5.66563H26.8729L26.9235 6.316ZM26.8053 7.0818H26.5857C26.5857 6.85656 26.6148 6.65385 26.673 6.47366C26.7312 6.2916 26.8128 6.13675 26.9179 6.00911C27.023 5.8796 27.1478 5.78106 27.2924 5.71349C27.4388 5.64405 27.6021 5.60932 27.7823 5.60932C27.9249 5.60932 28.0554 5.62997 28.1736 5.67126C28.2919 5.71255 28.3932 5.77825 28.4777 5.86834C28.564 5.95844 28.6297 6.07762 28.6748 6.2259C28.7217 6.37418 28.7451 6.55531 28.7451 6.76929V8.71194H27.9287V6.76647C27.9287 6.63133 27.9099 6.52622 27.8723 6.45114C27.8348 6.37606 27.7794 6.32351 27.7062 6.29347C27.6349 6.26157 27.5467 6.24561 27.4416 6.24561C27.3327 6.24561 27.2379 6.2672 27.1572 6.31037C27.0784 6.35354 27.0127 6.4136 26.9601 6.49056C26.9095 6.56563 26.871 6.65385 26.8447 6.75521C26.8184 6.85656 26.8053 6.96543 26.8053 7.0818ZM31.2903 5.66563H32.0251V8.61059C32.0251 8.88838 31.9632 9.12394 31.8393 9.31727C31.7173 9.51247 31.5465 9.65981 31.3269 9.75929C31.1073 9.86065 30.852 9.91133 30.5611 9.91133C30.4335 9.91133 30.2983 9.89443 30.1557 9.86065C30.0149 9.82686 29.8798 9.77431 29.7503 9.70298C29.6226 9.63166 29.5156 9.54156 29.4293 9.4327L29.7869 8.95407C29.8807 9.06294 29.9896 9.1474 30.1134 9.20746C30.2373 9.2694 30.3743 9.30037 30.5245 9.30037C30.6709 9.30037 30.7948 9.27316 30.8961 9.21873C30.9975 9.16617 31.0754 9.08828 31.1298 8.98504C31.1843 8.88369 31.2115 8.76075 31.2115 8.61622V6.36949L31.2903 5.66563ZM29.2407 7.22539V7.16626C29.2407 6.93352 29.2688 6.72236 29.3251 6.53279C29.3833 6.34134 29.465 6.1771 29.5701 6.04008C29.6771 5.90307 29.8066 5.79702 29.9586 5.72194C30.1106 5.64686 30.2824 5.60932 30.4738 5.60932C30.6765 5.60932 30.8464 5.64686 30.9834 5.72194C31.1204 5.79702 31.2331 5.904 31.3213 6.0429C31.4095 6.17992 31.478 6.34228 31.5268 6.52997C31.5775 6.71579 31.6169 6.91944 31.6451 7.14092V7.27044C31.6169 7.48253 31.5747 7.67961 31.5184 7.86168C31.462 8.04374 31.3879 8.20329 31.2959 8.34031C31.204 8.47545 31.0895 8.58056 30.9525 8.65564C30.8173 8.73071 30.6559 8.76825 30.4682 8.76825C30.2805 8.76825 30.1106 8.72978 29.9586 8.65282C29.8084 8.57586 29.6799 8.46794 29.5729 8.32904C29.4659 8.19015 29.3833 8.02685 29.3251 7.83916C29.2688 7.65146 29.2407 7.44687 29.2407 7.22539ZM30.0515 7.16626V7.22539C30.0515 7.35114 30.0637 7.46846 30.0881 7.57732C30.1125 7.68618 30.15 7.78285 30.2007 7.86731C30.2533 7.9499 30.318 8.01465 30.395 8.06158C30.4738 8.10662 30.5667 8.12915 30.6737 8.12915C30.822 8.12915 30.9431 8.09818 31.0369 8.03624C31.1308 7.97242 31.2011 7.88514 31.2481 7.7744C31.295 7.66366 31.3222 7.53603 31.3297 7.3915V7.02268C31.326 6.90443 31.31 6.79838 31.2819 6.70453C31.2537 6.60881 31.2143 6.52716 31.1636 6.45959C31.1129 6.39202 31.0472 6.33946 30.9665 6.30192C30.8858 6.26438 30.7901 6.24561 30.6794 6.24561C30.5724 6.24561 30.4795 6.27001 30.4006 6.31881C30.3237 6.36574 30.2589 6.43049 30.2064 6.51308C30.1557 6.59567 30.1172 6.69327 30.0909 6.80589C30.0646 6.91663 30.0515 7.03675 30.0515 7.16626ZM33.9143 8.13478C34.0138 8.13478 34.102 8.11601 34.179 8.07847C34.2559 8.03905 34.316 7.98462 34.3591 7.91517C34.4042 7.84385 34.4277 7.76032 34.4295 7.6646H35.1925C35.1906 7.87857 35.1334 8.06908 35.0208 8.23613C34.9082 8.40131 34.7571 8.53176 34.5675 8.62748C34.3779 8.72133 34.1658 8.76825 33.9312 8.76825C33.6947 8.76825 33.4882 8.72884 33.3118 8.65C33.1372 8.57117 32.9918 8.46231 32.8754 8.32341C32.759 8.18264 32.6717 8.01934 32.6136 7.83352C32.5554 7.64583 32.5263 7.44499 32.5263 7.23102V7.14937C32.5263 6.93352 32.5554 6.73268 32.6136 6.54687C32.6717 6.35917 32.759 6.19587 32.8754 6.05698C32.9918 5.9162 33.1372 5.8064 33.3118 5.72757C33.4864 5.64874 33.6909 5.60932 33.9256 5.60932C34.1752 5.60932 34.3939 5.65718 34.5816 5.75291C34.7711 5.84863 34.9194 5.98565 35.0264 6.16396C35.1353 6.3404 35.1906 6.54968 35.1925 6.79181H34.4295C34.4277 6.69045 34.4061 6.59848 34.3648 6.5159C34.3254 6.43331 34.2672 6.36762 34.1902 6.31881C34.1151 6.26814 34.0222 6.2428 33.9115 6.2428C33.7932 6.2428 33.6966 6.26814 33.6215 6.31881C33.5464 6.36762 33.4882 6.43519 33.4469 6.52153C33.4056 6.60599 33.3766 6.70265 33.3597 6.81152C33.3446 6.9185 33.3371 7.03112 33.3371 7.14937V7.23102C33.3371 7.34927 33.3446 7.46282 33.3597 7.57169C33.3747 7.68055 33.4028 7.77722 33.4441 7.86168C33.4873 7.94614 33.5464 8.01278 33.6215 8.06158C33.6966 8.11038 33.7942 8.13478 33.9143 8.13478ZM35.5332 7.21976V7.16063C35.5332 6.93727 35.5651 6.73175 35.6289 6.54405C35.6927 6.35448 35.7856 6.19024 35.9076 6.05135C36.0296 5.91245 36.1798 5.80453 36.3581 5.72757C36.5364 5.64874 36.741 5.60932 36.9719 5.60932C37.2027 5.60932 37.4083 5.64874 37.5885 5.72757C37.7686 5.80453 37.9197 5.91245 38.0417 6.05135C38.1656 6.19024 38.2595 6.35448 38.3233 6.54405C38.3871 6.73175 38.419 6.93727 38.419 7.16063V7.21976C38.419 7.44124 38.3871 7.64677 38.3233 7.83634C38.2595 8.02404 38.1656 8.18827 38.0417 8.32904C37.9197 8.46794 37.7696 8.57586 37.5913 8.65282C37.413 8.72978 37.2084 8.76825 36.9775 8.76825C36.7466 8.76825 36.5411 8.72978 36.3609 8.65282C36.1826 8.57586 36.0315 8.46794 35.9076 8.32904C35.7856 8.18827 35.6927 8.02404 35.6289 7.83634C35.5651 7.64677 35.5332 7.44124 35.5332 7.21976ZM36.344 7.16063V7.21976C36.344 7.34739 36.3553 7.46658 36.3778 7.57732C36.4003 7.68806 36.436 7.78566 36.4848 7.87013C36.5355 7.95271 36.6012 8.01747 36.6819 8.06439C36.7626 8.11132 36.8611 8.13478 36.9775 8.13478C37.0901 8.13478 37.1868 8.11132 37.2675 8.06439C37.3482 8.01747 37.413 7.95271 37.4618 7.87013C37.5106 7.78566 37.5462 7.68806 37.5688 7.57732C37.5932 7.46658 37.6054 7.34739 37.6054 7.21976V7.16063C37.6054 7.03675 37.5932 6.92038 37.5688 6.81152C37.5462 6.70078 37.5096 6.60317 37.459 6.51871C37.4101 6.43237 37.3454 6.3648 37.2647 6.316C37.184 6.2672 37.0864 6.2428 36.9719 6.2428C36.8574 6.2428 36.7598 6.2672 36.6791 6.316C36.6002 6.3648 36.5355 6.43237 36.4848 6.51871C36.436 6.60317 36.4003 6.70078 36.3778 6.81152C36.3553 6.92038 36.344 7.03675 36.344 7.16063ZM40.7164 8.0475V4.38742H41.5329V8.71194H40.7981L40.7164 8.0475ZM38.7907 7.22539V7.16626C38.7907 6.93352 38.8169 6.72236 38.8695 6.53279C38.922 6.34134 38.999 6.1771 39.1004 6.04008C39.2017 5.90307 39.3265 5.79702 39.4748 5.72194C39.6231 5.64686 39.792 5.60932 39.9816 5.60932C40.1599 5.60932 40.3157 5.64686 40.449 5.72194C40.5841 5.79702 40.6986 5.904 40.7924 6.0429C40.8882 6.17992 40.9651 6.34228 41.0233 6.52997C41.0815 6.71579 41.1237 6.91944 41.15 7.14092V7.27044C41.1237 7.48253 41.0815 7.67961 41.0233 7.86168C40.9651 8.04374 40.8882 8.20329 40.7924 8.34031C40.6986 8.47545 40.5841 8.58056 40.449 8.65564C40.3138 8.73071 40.1561 8.76825 39.976 8.76825C39.7864 8.76825 39.6175 8.72978 39.4692 8.65282C39.3228 8.57586 39.1989 8.46794 39.0975 8.32904C38.9981 8.19015 38.922 8.02685 38.8695 7.83916C38.8169 7.65146 38.7907 7.44687 38.7907 7.22539ZM39.6015 7.16626V7.22539C39.6015 7.35114 39.6109 7.46846 39.6297 7.57732C39.6503 7.68618 39.6832 7.78285 39.7282 7.86731C39.7751 7.9499 39.8352 8.01465 39.9084 8.06158C39.9835 8.10662 40.0745 8.12915 40.1815 8.12915C40.3204 8.12915 40.4349 8.09818 40.525 8.03624C40.6151 7.97242 40.6836 7.88514 40.7305 7.7744C40.7793 7.66366 40.8075 7.53603 40.815 7.3915V7.02268C40.8093 6.90443 40.7924 6.79838 40.7643 6.70453C40.738 6.60881 40.6986 6.52716 40.646 6.45959C40.5954 6.39202 40.5315 6.33946 40.4546 6.30192C40.3795 6.26438 40.2904 6.24561 40.1871 6.24561C40.082 6.24561 39.9919 6.27001 39.9168 6.31881C39.8418 6.36574 39.7808 6.43049 39.7338 6.51308C39.6888 6.59567 39.655 6.69327 39.6325 6.80589C39.6118 6.91663 39.6015 7.03675 39.6015 7.16626ZM43.0223 5.66563V8.71194H42.2086V5.66563H43.0223ZM42.1579 4.87167C42.1579 4.75343 42.1992 4.65582 42.2818 4.57887C42.3644 4.50191 42.4751 4.46343 42.614 4.46343C42.7511 4.46343 42.8609 4.50191 42.9434 4.57887C43.0279 4.65582 43.0701 4.75343 43.0701 4.87167C43.0701 4.98992 43.0279 5.08752 42.9434 5.16448C42.8609 5.24144 42.7511 5.27991 42.614 5.27991C42.4751 5.27991 42.3644 5.24144 42.2818 5.16448C42.1992 5.08752 42.1579 4.98992 42.1579 4.87167ZM44.4863 6.316V8.71194H43.6755V5.66563H44.4356L44.4863 6.316ZM44.3681 7.0818H44.1485C44.1485 6.85656 44.1775 6.65385 44.2357 6.47366C44.2939 6.2916 44.3756 6.13675 44.4807 6.00911C44.5858 5.8796 44.7106 5.78106 44.8551 5.71349C45.0015 5.64405 45.1648 5.60932 45.345 5.60932C45.4877 5.60932 45.6181 5.62997 45.7364 5.67126C45.8546 5.71255 45.956 5.77825 46.0404 5.86834C46.1268 5.95844 46.1925 6.07762 46.2375 6.2259C46.2844 6.37418 46.3079 6.55531 46.3079 6.76929V8.71194H45.4914V6.76647C45.4914 6.63133 45.4727 6.52622 45.4351 6.45114C45.3976 6.37606 45.3422 6.32351 45.269 6.29347C45.1977 6.26157 45.1095 6.24561 45.0044 6.24561C44.8955 6.24561 44.8007 6.2672 44.72 6.31037C44.6412 6.35354 44.5755 6.4136 44.5229 6.49056C44.4722 6.56563 44.4338 6.65385 44.4075 6.75521C44.3812 6.85656 44.3681 6.96543 44.3681 7.0818ZM48.8531 5.66563H49.5879V8.61059C49.5879 8.88838 49.526 9.12394 49.4021 9.31727C49.2801 9.51247 49.1093 9.65981 48.8897 9.75929C48.6701 9.86065 48.4148 9.91133 48.1239 9.91133C47.9962 9.91133 47.8611 9.89443 47.7184 9.86065C47.5777 9.82686 47.4425 9.77431 47.313 9.70298C47.1854 9.63166 47.0784 9.54156 46.9921 9.4327L47.3496 8.95407C47.4435 9.06294 47.5523 9.1474 47.6762 9.20746C47.8001 9.2694 47.9371 9.30037 48.0873 9.30037C48.2337 9.30037 48.3575 9.27316 48.4589 9.21873C48.5603 9.16617 48.6382 9.08828 48.6926 8.98504C48.747 8.88369 48.7742 8.76075 48.7742 8.61622V6.36949L48.8531 5.66563ZM46.8034 7.22539V7.16626C46.8034 6.93352 46.8316 6.72236 46.8879 6.53279C46.9461 6.34134 47.0277 6.1771 47.1328 6.04008C47.2398 5.90307 47.3693 5.79702 47.5214 5.72194C47.6734 5.64686 47.8451 5.60932 48.0366 5.60932C48.2393 5.60932 48.4092 5.64686 48.5462 5.72194C48.6832 5.79702 48.7958 5.904 48.884 6.0429C48.9723 6.17992 49.0408 6.34228 49.0896 6.52997C49.1402 6.71579 49.1797 6.91944 49.2078 7.14092V7.27044C49.1797 7.48253 49.1374 7.67961 49.0811 7.86168C49.0248 8.04374 48.9507 8.20329 48.8587 8.34031C48.7667 8.47545 48.6522 8.58056 48.5152 8.65564C48.3801 8.73071 48.2187 8.76825 48.031 8.76825C47.8433 8.76825 47.6734 8.72978 47.5214 8.65282C47.3712 8.57586 47.2426 8.46794 47.1356 8.32904C47.0287 8.19015 46.9461 8.02685 46.8879 7.83916C46.8316 7.65146 46.8034 7.44687 46.8034 7.22539ZM47.6143 7.16626V7.22539C47.6143 7.35114 47.6265 7.46846 47.6509 7.57732C47.6753 7.68618 47.7128 7.78285 47.7635 7.86731C47.816 7.9499 47.8808 8.01465 47.9578 8.06158C48.0366 8.10662 48.1295 8.12915 48.2365 8.12915C48.3848 8.12915 48.5058 8.09818 48.5997 8.03624C48.6935 7.97242 48.7639 7.88514 48.8108 7.7744C48.8578 7.66366 48.885 7.53603 48.8925 7.3915V7.02268C48.8887 6.90443 48.8728 6.79838 48.8446 6.70453C48.8165 6.60881 48.7771 6.52716 48.7264 6.45959C48.6757 6.39202 48.61 6.33946 48.5293 6.30192C48.4486 6.26438 48.3529 6.24561 48.2421 6.24561C48.1351 6.24561 48.0422 6.27001 47.9634 6.31881C47.8864 6.36574 47.8217 6.43049 47.7691 6.51308C47.7184 6.59567 47.68 6.69327 47.6537 6.80589C47.6274 6.91663 47.6143 7.03675 47.6143 7.16626ZM53.8392 7.63926C53.8392 7.56606 53.828 7.50036 53.8054 7.44218C53.7848 7.38211 53.7454 7.32768 53.6872 7.27888C53.629 7.2282 53.5474 7.17846 53.4422 7.12966C53.3371 7.08086 53.2011 7.03018 53.034 6.97763C52.8482 6.91757 52.6717 6.85 52.5047 6.77492C52.3395 6.69984 52.1931 6.61256 52.0655 6.51308C51.9397 6.41172 51.8403 6.29441 51.7671 6.16115C51.6957 6.02788 51.6601 5.87303 51.6601 5.6966C51.6601 5.5258 51.6976 5.37095 51.7727 5.23205C51.8478 5.09128 51.9529 4.97115 52.088 4.87167C52.2232 4.77032 52.3827 4.69242 52.5666 4.63799C52.7525 4.58356 52.9561 4.55634 53.1776 4.55634C53.4798 4.55634 53.7435 4.61078 53.9687 4.71964C54.194 4.8285 54.3685 4.97772 54.4924 5.1673C54.6182 5.35687 54.681 5.57366 54.681 5.81766H53.842C53.842 5.69754 53.8167 5.59243 53.766 5.50233C53.7172 5.41036 53.6421 5.3381 53.5408 5.28554C53.4413 5.23299 53.3155 5.20671 53.1635 5.20671C53.0171 5.20671 52.8951 5.22924 52.7975 5.27428C52.6999 5.31745 52.6267 5.37658 52.5779 5.45166C52.5291 5.52486 52.5047 5.60744 52.5047 5.69942C52.5047 5.76886 52.5216 5.83174 52.5554 5.88805C52.591 5.94436 52.6436 5.99691 52.713 6.04572C52.7825 6.09452 52.8679 6.1405 52.9692 6.18367C53.0706 6.22684 53.1879 6.26907 53.3212 6.31037C53.5445 6.37794 53.7407 6.45396 53.9096 6.53842C54.0804 6.62288 54.2231 6.71767 54.3376 6.82278C54.4521 6.92789 54.5384 7.04708 54.5966 7.18034C54.6548 7.31361 54.6839 7.4647 54.6839 7.63363C54.6839 7.81194 54.6491 7.97148 54.5797 8.11225C54.5102 8.25303 54.4098 8.37221 54.2784 8.46982C54.147 8.56742 53.9903 8.64156 53.8083 8.69224C53.6262 8.74291 53.4225 8.76825 53.1973 8.76825C52.9946 8.76825 52.7947 8.74198 52.5976 8.68942C52.4005 8.63499 52.2213 8.55334 52.0599 8.44448C51.9003 8.33561 51.7727 8.19672 51.677 8.02779C51.5812 7.85886 51.5334 7.65897 51.5334 7.4281H52.3808C52.3808 7.55573 52.4005 7.66366 52.4399 7.75188C52.4794 7.84009 52.5347 7.91142 52.6061 7.96585C52.6793 8.02028 52.7656 8.0597 52.8651 8.0841C52.9664 8.1085 53.0772 8.1207 53.1973 8.1207C53.3437 8.1207 53.4638 8.10005 53.5577 8.05876C53.6534 8.01747 53.7238 7.96022 53.7688 7.88702C53.8158 7.81382 53.8392 7.73123 53.8392 7.63926ZM56.6997 5.66563V6.23998H54.926V5.66563H56.6997ZM55.3652 4.91391H56.176V7.79411C56.176 7.88233 56.1873 7.9499 56.2098 7.99682C56.2342 8.04374 56.2699 8.07659 56.3168 8.09536C56.3637 8.11225 56.4229 8.1207 56.4942 8.1207C56.5449 8.1207 56.5899 8.11882 56.6293 8.11507C56.6706 8.10944 56.7054 8.10381 56.7335 8.09818L56.7363 8.69505C56.6669 8.71758 56.5918 8.73541 56.5111 8.74855C56.4304 8.76168 56.3412 8.76825 56.2436 8.76825C56.0653 8.76825 55.9095 8.73916 55.7763 8.68097C55.6449 8.62091 55.5435 8.52519 55.4722 8.3938C55.4009 8.26241 55.3652 8.08973 55.3652 7.87576V4.91391ZM56.9587 7.21976V7.16063C56.9587 6.93727 56.9906 6.73175 57.0545 6.54405C57.1183 6.35448 57.2112 6.19024 57.3332 6.05135C57.4552 5.91245 57.6054 5.80453 57.7837 5.72757C57.962 5.64874 58.1666 5.60932 58.3974 5.60932C58.6283 5.60932 58.8338 5.64874 59.014 5.72757C59.1942 5.80453 59.3453 5.91245 59.4673 6.05135C59.5912 6.19024 59.685 6.35448 59.7488 6.54405C59.8127 6.73175 59.8446 6.93727 59.8446 7.16063V7.21976C59.8446 7.44124 59.8127 7.64677 59.7488 7.83634C59.685 8.02404 59.5912 8.18827 59.4673 8.32904C59.3453 8.46794 59.1951 8.57586 59.0168 8.65282C58.8385 8.72978 58.6339 8.76825 58.4031 8.76825C58.1722 8.76825 57.9667 8.72978 57.7865 8.65282C57.6082 8.57586 57.4571 8.46794 57.3332 8.32904C57.2112 8.18827 57.1183 8.02404 57.0545 7.83634C56.9906 7.64677 56.9587 7.44124 56.9587 7.21976ZM57.7696 7.16063V7.21976C57.7696 7.34739 57.7808 7.46658 57.8034 7.57732C57.8259 7.68806 57.8616 7.78566 57.9104 7.87013C57.961 7.95271 58.0267 8.01747 58.1074 8.06439C58.1882 8.11132 58.2867 8.13478 58.4031 8.13478C58.5157 8.13478 58.6123 8.11132 58.6931 8.06439C58.7738 8.01747 58.8385 7.95271 58.8873 7.87013C58.9361 7.78566 58.9718 7.68806 58.9943 7.57732C59.0187 7.46658 59.0309 7.34739 59.0309 7.21976V7.16063C59.0309 7.03675 59.0187 6.92038 58.9943 6.81152C58.9718 6.70078 58.9352 6.60317 58.8845 6.51871C58.8357 6.43237 58.7709 6.3648 58.6902 6.316C58.6095 6.2672 58.5119 6.2428 58.3974 6.2428C58.2829 6.2428 58.1853 6.2672 58.1046 6.316C58.0258 6.3648 57.961 6.43237 57.9104 6.51871C57.8616 6.60317 57.8259 6.70078 57.8034 6.81152C57.7808 6.92038 57.7696 7.03675 57.7696 7.16063ZM61.1538 6.33008V8.71194H60.3429V5.66563H61.1059L61.1538 6.33008ZM62.0716 5.64592L62.0575 6.39765C62.0181 6.39202 61.9702 6.38732 61.9139 6.38357C61.8595 6.37794 61.8098 6.37512 61.7647 6.37512C61.6502 6.37512 61.5507 6.39014 61.4663 6.42017C61.3837 6.44832 61.3142 6.49056 61.2579 6.54687C61.2035 6.60317 61.1622 6.67168 61.1341 6.75239C61.1078 6.8331 61.0928 6.92507 61.089 7.02831L60.9257 6.97763C60.9257 6.78055 60.9454 6.59942 60.9848 6.43425C61.0242 6.2672 61.0815 6.12173 61.1566 5.99785C61.2335 5.87397 61.3274 5.77825 61.4381 5.71068C61.5489 5.64311 61.6756 5.60932 61.8182 5.60932C61.8633 5.60932 61.9092 5.61308 61.9562 5.62058C62.0031 5.62621 62.0416 5.63466 62.0716 5.64592ZM63.8003 8.76825C63.5638 8.76825 63.3517 8.73071 63.164 8.65564C62.9763 8.57868 62.8167 8.47263 62.6854 8.33749C62.5559 8.20235 62.4564 8.04562 62.3869 7.86731C62.3175 7.68712 62.2828 7.49567 62.2828 7.29296V7.18034C62.2828 6.94947 62.3156 6.73832 62.3813 6.54687C62.447 6.35541 62.5408 6.1893 62.6628 6.04853C62.7867 5.90776 62.9369 5.79983 63.1133 5.72475C63.2897 5.6478 63.4887 5.60932 63.7102 5.60932C63.926 5.60932 64.1175 5.64498 64.2845 5.71631C64.4516 5.78763 64.5914 5.88899 64.704 6.02038C64.8185 6.15176 64.9049 6.30943 64.9631 6.49337C65.0212 6.67544 65.0503 6.87815 65.0503 7.10151V7.43936H62.6291V6.8988H64.2536V6.83686C64.2536 6.72424 64.2329 6.62382 64.1916 6.5356C64.1522 6.44551 64.0921 6.37418 64.0114 6.32163C63.9307 6.26907 63.8275 6.2428 63.7017 6.2428C63.5948 6.2428 63.5028 6.26626 63.4258 6.31318C63.3489 6.36011 63.286 6.4258 63.2372 6.51026C63.1903 6.59473 63.1546 6.69421 63.1302 6.8087C63.1077 6.92132 63.0964 7.0452 63.0964 7.18034V7.29296C63.0964 7.41496 63.1133 7.52758 63.1471 7.63081C63.1828 7.73405 63.2325 7.8232 63.2963 7.89828C63.362 7.97336 63.4408 8.03154 63.5328 8.07284C63.6267 8.11413 63.7327 8.13478 63.851 8.13478C63.9974 8.13478 64.1334 8.10662 64.2592 8.05031C64.3868 7.99213 64.4966 7.90485 64.5886 7.78848L64.9828 8.21643C64.9189 8.3084 64.8317 8.39661 64.7209 8.48108C64.6121 8.56554 64.4807 8.63499 64.3268 8.68942C64.1729 8.74198 63.9974 8.76825 63.8003 8.76825Z" fill="#545BE8"/>
<path d="M14.7777 0.00521851H0.431772C0.383059 0.00521851 0.343506 0.044945 0.343506 0.093953V13.8928C0.343506 13.9418 0.383059 13.9816 0.431772 13.9816H14.7777C14.8264 13.9816 14.8657 13.9418 14.8657 13.8928V0.093953C14.8657 0.044945 14.8264 0.00521851 14.7777 0.00521851Z" fill="#545BE8"/>
<path d="M4.18164 3.08102V10.9058" stroke="white" stroke-width="1.26926"/>
<path d="M6.52634 3.08102V6.97861" stroke="white" stroke-width="1.26685"/>
<path d="M8.3125 3.0813V4.40517H10.5499L12.1729 7.7589H13.6343L11.3133 3.0813H8.3125Z" fill="white"/>
<path d="M8.97733 5.83984V11.0611" stroke="white" stroke-width="1.46628"/>
</g>
<defs>
<clipPath id="clip0_32_278">
<rect width="65.8976" height="14.0032" fill="white" transform="translate(0.343506 0.00521851)"/>
</clipPath>
</defs>
</svg>
