<svg width="11" height="11" viewBox="0 0 11 11" fill="none" xmlns="http://www.w3.org/2000/svg">
<rect x="0.260465" y="0.684171" width="9.82171" height="9.82171" stroke="white" stroke-width="0.316829"/>
<g clip-path="url(#clip0_32_431)">
<path d="M3.76206 7.8129V4.60643H2.68668V7.8129H3.76206ZM3.22451 4.16838C3.59952 4.16838 3.83294 3.92216 3.83294 3.61447C3.82595 3.29984 3.59953 3.06046 3.23163 3.06046C2.86379 3.06046 2.62324 3.29985 2.62324 3.61447C2.62324 3.92218 2.8566 4.16838 3.21749 4.16838H3.22448H3.22451ZM4.35728 7.8129H5.43266V6.02225C5.43266 5.92642 5.43965 5.83068 5.46805 5.76218C5.54579 5.57071 5.72273 5.3724 6.0198 5.3724C6.40893 5.3724 6.56461 5.66644 6.56461 6.09749V7.81287H7.63992V5.97432C7.63992 4.98942 7.10939 4.53115 6.40185 4.53115C5.82173 4.53115 5.56701 4.85252 5.42551 5.07141H5.43269V4.60637H4.35731C4.37142 4.90724 4.35731 7.81283 4.35731 7.81283L4.35728 7.8129Z" fill="white"/>
</g>
<defs>
<clipPath id="clip0_32_431">
<rect width="5.06927" height="4.75244" fill="white" transform="translate(2.63663 3.0605)"/>
</clipPath>
</defs>
</svg>
