<svg width="11" height="11" viewBox="0 0 11 11" fill="none" xmlns="http://www.w3.org/2000/svg">
<rect x="0.468168" y="0.684171" width="9.82171" height="9.82171" stroke="white" stroke-width="0.316829"/>
<g clip-path="url(#clip0_32_436)">
<path d="M5.33994 4.31428C4.62786 4.31428 4.05349 4.88569 4.05349 5.5941C4.05349 6.30251 4.62786 6.87392 5.33994 6.87392C6.05201 6.87392 6.62638 6.30251 6.62638 5.5941C6.62638 4.88569 6.05201 4.31428 5.33994 4.31428ZM5.33994 6.42615C4.87977 6.42615 4.50358 6.05301 4.50358 5.5941C4.50358 5.13519 4.87865 4.76205 5.33994 4.76205C5.80122 4.76205 6.17629 5.13519 6.17629 5.5941C6.17629 6.05301 5.8001 6.42615 5.33994 6.42615ZM6.97906 4.26193C6.97906 4.4279 6.84471 4.56045 6.679 4.56045C6.51218 4.56045 6.37894 4.42678 6.37894 4.26193C6.37894 4.09708 6.5133 3.96342 6.679 3.96342C6.84471 3.96342 6.97906 4.09708 6.97906 4.26193ZM7.83109 4.5649C7.81206 4.16503 7.72025 3.81082 7.42579 3.51899C7.13245 3.22716 6.77641 3.13583 6.37447 3.11578C5.96021 3.09239 4.71855 3.09239 4.30429 3.11578C3.90346 3.13471 3.54742 3.22605 3.25296 3.51788C2.9585 3.80971 2.86781 4.16391 2.84766 4.56379C2.82415 4.97591 2.82415 6.21117 2.84766 6.6233C2.86669 7.02317 2.9585 7.37738 3.25296 7.66921C3.54742 7.96104 3.90234 8.05237 4.30429 8.07242C4.71855 8.09581 5.96021 8.09581 6.37447 8.07242C6.77641 8.05349 7.13245 7.96215 7.42579 7.66921C7.71913 7.37738 7.81094 7.02317 7.83109 6.6233C7.8546 6.21117 7.8546 4.97703 7.83109 4.5649ZM7.29591 7.0655C7.20858 7.28381 7.03952 7.45201 6.81895 7.54C6.48867 7.67032 5.70493 7.64025 5.33994 7.64025C4.97494 7.64025 4.19008 7.66921 3.86092 7.54C3.64147 7.45312 3.47241 7.28493 3.38396 7.0655C3.25296 6.73691 3.28319 5.95722 3.28319 5.5941C3.28319 5.23098 3.25408 4.45017 3.38396 4.1227C3.47129 3.90439 3.64035 3.73619 3.86092 3.6482C4.1912 3.51788 4.97494 3.54795 5.33994 3.54795C5.70493 3.54795 6.48979 3.51899 6.81895 3.6482C7.0384 3.73508 7.20746 3.90327 7.29591 4.1227C7.42691 4.45129 7.39668 5.23098 7.39668 5.5941C7.39668 5.95722 7.42691 6.73803 7.29591 7.0655Z" fill="white"/>
</g>
<defs>
<clipPath id="clip0_32_436">
<rect width="5.06927" height="5.70292" fill="white" transform="translate(2.84429 2.74364)"/>
</clipPath>
</defs>
</svg>
