<svg width="12" height="11" viewBox="0 0 12 11" fill="none" xmlns="http://www.w3.org/2000/svg">
<rect x="1.05258" y="0.684171" width="9.82171" height="9.82171" stroke="white" stroke-width="0.316829"/>
<g clip-path="url(#clip0_32_426)">
<path d="M8.74492 3.91755C8.53361 4.00768 8.30948 4.06684 8.07998 4.09306C8.31903 3.95511 8.50258 3.73666 8.58901 3.47638C8.36176 3.60622 8.11313 3.6977 7.85387 3.74687C7.64268 3.53025 7.34182 3.39487 7.00882 3.39487C6.36945 3.39487 5.85108 3.89395 5.85108 4.5095C5.85108 4.59687 5.86133 4.68194 5.88106 4.76354C4.9189 4.71704 4.06585 4.27329 3.49484 3.5989C3.39521 3.76353 3.33812 3.95503 3.33812 4.15928C3.33812 4.546 3.54252 4.88716 3.85314 5.08706C3.6693 5.08152 3.4895 5.03371 3.32875 4.94763C3.32868 4.9523 3.32868 4.95696 3.32868 4.96165C3.32868 5.50172 3.72774 5.95224 4.25734 6.05464C4.08686 6.09928 3.90803 6.10581 3.73453 6.07374C3.88184 6.51658 4.3094 6.83883 4.81598 6.84785C4.41977 7.1468 3.92057 7.32501 3.37819 7.32501C3.28473 7.32501 3.19259 7.31972 3.10202 7.30943C3.61436 7.62569 4.22288 7.81023 4.87667 7.81023C7.00613 7.81023 8.17057 6.11173 8.17057 4.63877C8.17057 4.59042 8.16947 4.54235 8.16722 4.49456C8.39387 4.3368 8.5895 4.14141 8.74492 3.91755Z" fill="white"/>
</g>
<defs>
<clipPath id="clip0_32_426">
<rect width="5.70292" height="4.43561" fill="white" transform="translate(3.11202 3.37726)"/>
</clipPath>
</defs>
</svg>
