<svg width="71" height="21" viewBox="0 0 71 21" fill="none" xmlns="http://www.w3.org/2000/svg">
<path d="M24.5611 12.9463V7.55466H26.6882C27.0972 7.55466 27.4456 7.63276 27.7334 7.78896C28.0212 7.94341 28.2406 8.1584 28.3915 8.43395C28.5442 8.70775 28.6206 9.02366 28.6206 9.3817C28.6206 9.73973 28.5434 10.0557 28.3889 10.3294C28.2345 10.6032 28.0107 10.8165 27.7176 10.9692C27.4263 11.1219 27.0735 11.1982 26.6593 11.1982H25.3035V10.2847H26.475C26.6944 10.2847 26.8752 10.247 27.0173 10.1715C27.1612 10.0943 27.2683 9.98808 27.3385 9.85294C27.4105 9.71604 27.4464 9.55896 27.4464 9.3817C27.4464 9.20268 27.4105 9.04648 27.3385 8.91309C27.2683 8.77795 27.1612 8.67352 27.0173 8.59981C26.8734 8.52434 26.6909 8.4866 26.4697 8.4866H25.701V12.9463H24.5611ZM30.4614 7.55466V12.9463H29.34V7.55466H30.4614ZM32.5129 13.0226C32.2549 13.0226 32.025 12.9779 31.8232 12.8884C31.6213 12.7971 31.4616 12.6628 31.344 12.4856C31.2282 12.3065 31.1703 12.0836 31.1703 11.8169C31.1703 11.5922 31.2115 11.4036 31.294 11.2509C31.3765 11.0982 31.4888 10.9753 31.631 10.8823C31.7732 10.7893 31.9346 10.7191 32.1154 10.6717C32.2979 10.6243 32.4892 10.591 32.6893 10.5716C32.9245 10.5471 33.114 10.5243 33.258 10.5032C33.4019 10.4804 33.5063 10.447 33.5712 10.4032C33.6362 10.3593 33.6686 10.2943 33.6686 10.2083V10.1925C33.6686 10.0258 33.616 9.89682 33.5107 9.80555C33.4071 9.71429 33.2597 9.66865 33.0684 9.66865C32.8666 9.66865 32.706 9.71341 32.5866 9.80292C32.4673 9.89067 32.3883 10.0012 32.3497 10.1346L31.3124 10.0504C31.3651 9.80467 31.4686 9.59231 31.6231 9.41329C31.7775 9.23252 31.9767 9.09386 32.2207 8.99733C32.4664 8.89905 32.7507 8.84991 33.0737 8.84991C33.2983 8.84991 33.5133 8.87623 33.7187 8.92889C33.9258 8.98154 34.1092 9.06315 34.2689 9.17372C34.4304 9.28429 34.5576 9.42645 34.6506 9.60021C34.7436 9.7722 34.7901 9.97843 34.7901 10.2189V12.9463H33.7266V12.3855H33.695C33.63 12.5119 33.5432 12.6233 33.4343 12.7199C33.3255 12.8146 33.1948 12.8892 33.0421 12.9436C32.8894 12.9963 32.713 13.0226 32.5129 13.0226ZM32.8341 12.2486C32.9991 12.2486 33.1448 12.2162 33.2711 12.1512C33.3975 12.0845 33.4966 11.995 33.5686 11.8827C33.6406 11.7704 33.6765 11.6431 33.6765 11.501V11.0718C33.6414 11.0947 33.5932 11.1157 33.5318 11.135C33.4721 11.1526 33.4045 11.1693 33.329 11.185C33.2536 11.1991 33.1781 11.2123 33.1026 11.2245C33.0272 11.2351 32.9587 11.2447 32.8973 11.2535C32.7657 11.2728 32.6507 11.3035 32.5524 11.3456C32.4541 11.3878 32.3778 11.4448 32.3234 11.5168C32.269 11.587 32.2418 11.6747 32.2418 11.78C32.2418 11.9327 32.297 12.0494 32.4076 12.1302C32.5199 12.2091 32.6621 12.2486 32.8341 12.2486ZM36.2078 14.4627C36.0657 14.4627 35.9323 14.4513 35.8077 14.4284C35.6848 14.4074 35.583 14.3802 35.5023 14.3468L35.755 13.5097C35.8866 13.55 36.0051 13.572 36.1104 13.5755C36.2175 13.579 36.3096 13.5544 36.3868 13.5018C36.4658 13.4491 36.5299 13.3596 36.579 13.2332L36.6448 13.0621L35.1943 8.90256H36.3737L37.2108 11.8722H37.253L38.098 8.90256H39.2854L37.7137 13.3833C37.6382 13.6009 37.5355 13.7905 37.4057 13.9519C37.2775 14.1152 37.1152 14.2406 36.9186 14.3284C36.7221 14.4179 36.4851 14.4627 36.2078 14.4627ZM42.5702 7.55466L43.8734 11.651H43.9234L45.2292 7.55466H46.4928L44.6342 12.9463H43.1652L41.3039 7.55466H42.5702ZM47.1207 12.9463V8.90256H48.2422V12.9463H47.1207ZM47.6841 8.3813C47.5174 8.3813 47.3743 8.32601 47.255 8.21544C47.1374 8.10312 47.0786 7.96885 47.0786 7.81265C47.0786 7.6582 47.1374 7.5257 47.255 7.41513C47.3743 7.3028 47.5174 7.24664 47.6841 7.24664C47.8508 7.24664 47.993 7.3028 48.1106 7.41513C48.2299 7.5257 48.2896 7.6582 48.2896 7.81265C48.2896 7.96885 48.2299 8.10312 48.1106 8.21544C47.993 8.32601 47.8508 8.3813 47.6841 8.3813ZM50.6307 13.0121C50.3235 13.0121 50.0453 12.9331 49.7961 12.7752C49.5486 12.6154 49.3521 12.3811 49.2064 12.0722C49.0625 11.7616 48.9905 11.3807 48.9905 10.9297C48.9905 10.4663 49.0651 10.0811 49.2143 9.77396C49.3635 9.46506 49.5618 9.23427 49.8093 9.08158C50.0585 8.92713 50.3314 8.84991 50.628 8.84991C50.8544 8.84991 51.0431 8.88852 51.194 8.96574C51.3467 9.04121 51.4696 9.13599 51.5626 9.25007C51.6574 9.36239 51.7293 9.47296 51.7785 9.58178H51.8127V7.55466H52.9316V12.9463H51.8259V12.2986H51.7785C51.7258 12.411 51.6512 12.5224 51.5547 12.633C51.4599 12.7418 51.3362 12.8322 51.1835 12.9042C51.0326 12.9761 50.8483 13.0121 50.6307 13.0121ZM50.9861 12.1196C51.1668 12.1196 51.3195 12.0705 51.4441 11.9722C51.5705 11.8722 51.667 11.7326 51.7337 11.5536C51.8022 11.3746 51.8364 11.1649 51.8364 10.9244C51.8364 10.684 51.8031 10.4751 51.7364 10.2979C51.6697 10.1206 51.5731 9.98369 51.4468 9.88716C51.3204 9.79063 51.1668 9.74237 50.9861 9.74237C50.8018 9.74237 50.6465 9.79239 50.5201 9.89243C50.3937 9.99247 50.2981 10.1311 50.2331 10.3084C50.1682 10.4856 50.1357 10.691 50.1357 10.9244C50.1357 11.1596 50.1682 11.3676 50.2331 11.5483C50.2998 11.7274 50.3955 11.8678 50.5201 11.9696C50.6465 12.0696 50.8018 12.1196 50.9861 12.1196ZM55.6965 13.0253C55.2805 13.0253 54.9225 12.941 54.6224 12.7725C54.324 12.6023 54.0941 12.3618 53.9326 12.0512C53.7712 11.7388 53.6904 11.3693 53.6904 10.9428C53.6904 10.5269 53.7712 10.1618 53.9326 9.84767C54.0941 9.53351 54.3214 9.28868 54.6145 9.11317C54.9093 8.93766 55.2551 8.84991 55.6517 8.84991C55.9185 8.84991 56.1669 8.89291 56.3968 8.97891C56.6284 9.06315 56.8303 9.19039 57.0023 9.36064C57.176 9.53088 57.3112 9.745 57.4077 10.003C57.5042 10.2592 57.5525 10.5594 57.5525 10.9034V11.2114H54.138V10.5164H56.4968C56.4968 10.3549 56.4617 10.2119 56.3915 10.0872C56.3213 9.96263 56.2239 9.86522 56.0993 9.79502C55.9764 9.72306 55.8334 9.68708 55.6702 9.68708C55.4999 9.68708 55.349 9.72657 55.2174 9.80555C55.0875 9.88277 54.9857 9.9872 54.912 10.1188C54.8383 10.2487 54.8005 10.3935 54.7988 10.5532V11.214C54.7988 11.4141 54.8356 11.587 54.9093 11.7326C54.9848 11.8783 55.091 11.9906 55.2279 12.0696C55.3648 12.1486 55.5271 12.1881 55.7149 12.1881C55.8395 12.1881 55.9536 12.1705 56.0572 12.1354C56.1607 12.1003 56.2493 12.0477 56.3231 11.9775C56.3968 11.9073 56.4529 11.8213 56.4915 11.7195L57.5288 11.7879C57.4761 12.0371 57.3682 12.2548 57.205 12.4408C57.0435 12.6251 56.8347 12.769 56.5784 12.8726C56.3239 12.9744 56.03 13.0253 55.6965 13.0253ZM60.1114 13.0253C59.7025 13.0253 59.3488 12.9384 59.0505 12.7646C58.7538 12.5891 58.5248 12.3452 58.3633 12.0328C58.2019 11.7186 58.1211 11.3544 58.1211 10.9402C58.1211 10.5225 58.2019 10.1574 58.3633 9.84504C58.5248 9.53088 58.7538 9.28692 59.0505 9.11317C59.3488 8.93766 59.7025 8.84991 60.1114 8.84991C60.5203 8.84991 60.8731 8.93766 61.1697 9.11317C61.4681 9.28692 61.698 9.53088 61.8595 9.84504C62.0209 10.1574 62.1017 10.5225 62.1017 10.9402C62.1017 11.3544 62.0209 11.7186 61.8595 12.0328C61.698 12.3452 61.4681 12.5891 61.1697 12.7646C60.8731 12.9384 60.5203 13.0253 60.1114 13.0253ZM60.1167 12.1565C60.3027 12.1565 60.458 12.1038 60.5826 11.9985C60.7073 11.8915 60.8012 11.7458 60.8643 11.5615C60.9293 11.3772 60.9617 11.1675 60.9617 10.9323C60.9617 10.6971 60.9293 10.4874 60.8643 10.3031C60.8012 10.1188 60.7073 9.97316 60.5826 9.8661C60.458 9.75904 60.3027 9.70551 60.1167 9.70551C59.9289 9.70551 59.7709 9.75904 59.6428 9.8661C59.5164 9.97316 59.4208 10.1188 59.3558 10.3031C59.2927 10.4874 59.2611 10.6971 59.2611 10.9323C59.2611 11.1675 59.2927 11.3772 59.3558 11.5615C59.4208 11.7458 59.5164 11.8915 59.6428 11.9985C59.7709 12.1038 59.9289 12.1565 60.1167 12.1565Z" fill="#141E32"/>
<circle cx="14.002" cy="10.4768" r="6.58976" fill="#F0C932"/>
<path d="M16.9879 10.4768L12.6634 12.9735V7.97999L16.9879 10.4768Z" fill="white"/>
</svg>
